<mxfile host="app.diagrams.net" modified="2024-01-12T05:49:44.913Z" agent="Mozilla/5.0 (Windows NT 10.0; Win64; x64) AppleWebKit/537.36 (KHTML, like Gecko) Chrome/120.0.0.0 Safari/537.36" version="22.1.18" etag="o21M7nGOvQv0fUlmblJx" type="device">
  <diagram id="tkes169dMKsQFGDSQObQ" name="페이지-1">
    <mxGraphModel dx="2074" dy="388" grid="0" gridSize="10" guides="1" tooltips="1" connect="1" arrows="1" fold="1" page="0" pageScale="1" pageWidth="827" pageHeight="1169" math="0" shadow="0">
      <root>
        <mxCell id="0" />
        <mxCell id="1" parent="0" />
        <mxCell id="qp2swLeGEZeMXIS86JU7-11" style="edgeStyle=none;curved=1;rounded=0;orthogonalLoop=1;jettySize=auto;html=1;fontSize=12;startSize=8;endSize=8;" edge="1" parent="1" source="qp2swLeGEZeMXIS86JU7-1">
          <mxGeometry relative="1" as="geometry">
            <mxPoint x="-113" y="802.5714285714286" as="targetPoint" />
          </mxGeometry>
        </mxCell>
        <mxCell id="qp2swLeGEZeMXIS86JU7-13" style="edgeStyle=none;curved=1;rounded=0;orthogonalLoop=1;jettySize=auto;html=1;entryX=0.5;entryY=0;entryDx=0;entryDy=0;fontSize=12;startSize=8;endSize=8;" edge="1" parent="1" source="qp2swLeGEZeMXIS86JU7-1" target="qp2swLeGEZeMXIS86JU7-5">
          <mxGeometry relative="1" as="geometry" />
        </mxCell>
        <mxCell id="qp2swLeGEZeMXIS86JU7-14" style="edgeStyle=none;curved=1;rounded=0;orthogonalLoop=1;jettySize=auto;html=1;entryX=0.5;entryY=0;entryDx=0;entryDy=0;fontSize=12;startSize=8;endSize=8;" edge="1" parent="1" source="qp2swLeGEZeMXIS86JU7-1" target="qp2swLeGEZeMXIS86JU7-6">
          <mxGeometry relative="1" as="geometry" />
        </mxCell>
        <mxCell id="qp2swLeGEZeMXIS86JU7-15" style="edgeStyle=none;curved=1;rounded=0;orthogonalLoop=1;jettySize=auto;html=1;entryX=0.5;entryY=0;entryDx=0;entryDy=0;fontSize=12;startSize=8;endSize=8;" edge="1" parent="1" source="qp2swLeGEZeMXIS86JU7-1" target="qp2swLeGEZeMXIS86JU7-4">
          <mxGeometry relative="1" as="geometry" />
        </mxCell>
        <mxCell id="qp2swLeGEZeMXIS86JU7-1" value="학생" style="rounded=1;arcSize=10;whiteSpace=wrap;html=1;align=center;fontSize=16;" vertex="1" parent="1">
          <mxGeometry x="-95" y="631" width="182" height="53" as="geometry" />
        </mxCell>
        <mxCell id="qp2swLeGEZeMXIS86JU7-2" value="학번" style="ellipse;whiteSpace=wrap;html=1;align=center;fontStyle=4;fontSize=16;" vertex="1" parent="1">
          <mxGeometry x="-293" y="803" width="100" height="40" as="geometry" />
        </mxCell>
        <mxCell id="qp2swLeGEZeMXIS86JU7-3" value="이름" style="ellipse;whiteSpace=wrap;html=1;align=center;fontSize=16;" vertex="1" parent="1">
          <mxGeometry x="-170" y="803" width="100" height="40" as="geometry" />
        </mxCell>
        <mxCell id="qp2swLeGEZeMXIS86JU7-4" value="학과" style="ellipse;whiteSpace=wrap;html=1;align=center;fontSize=16;" vertex="1" parent="1">
          <mxGeometry x="-52" y="803" width="100" height="40" as="geometry" />
        </mxCell>
        <mxCell id="qp2swLeGEZeMXIS86JU7-5" value="학년" style="ellipse;whiteSpace=wrap;html=1;align=center;fontSize=16;" vertex="1" parent="1">
          <mxGeometry x="71" y="803" width="100" height="40" as="geometry" />
        </mxCell>
        <mxCell id="qp2swLeGEZeMXIS86JU7-6" value="전화번호" style="ellipse;whiteSpace=wrap;html=1;align=center;fontSize=16;" vertex="1" parent="1">
          <mxGeometry x="190" y="803" width="100" height="40" as="geometry" />
        </mxCell>
        <mxCell id="qp2swLeGEZeMXIS86JU7-10" style="edgeStyle=none;curved=1;rounded=0;orthogonalLoop=1;jettySize=auto;html=1;entryX=0.56;entryY=-0.054;entryDx=0;entryDy=0;entryPerimeter=0;fontSize=12;startSize=8;endSize=8;" edge="1" parent="1" source="qp2swLeGEZeMXIS86JU7-1" target="qp2swLeGEZeMXIS86JU7-2">
          <mxGeometry relative="1" as="geometry" />
        </mxCell>
        <mxCell id="qp2swLeGEZeMXIS86JU7-17" style="edgeStyle=none;curved=1;rounded=0;orthogonalLoop=1;jettySize=auto;html=1;entryX=0.5;entryY=0;entryDx=0;entryDy=0;fontSize=12;startSize=8;endSize=8;" edge="1" source="qp2swLeGEZeMXIS86JU7-20" target="qp2swLeGEZeMXIS86JU7-24" parent="1">
          <mxGeometry relative="1" as="geometry" />
        </mxCell>
        <mxCell id="qp2swLeGEZeMXIS86JU7-19" style="edgeStyle=none;curved=1;rounded=0;orthogonalLoop=1;jettySize=auto;html=1;entryX=0.5;entryY=0;entryDx=0;entryDy=0;fontSize=12;startSize=8;endSize=8;" edge="1" source="qp2swLeGEZeMXIS86JU7-20" target="qp2swLeGEZeMXIS86JU7-23" parent="1">
          <mxGeometry relative="1" as="geometry" />
        </mxCell>
        <mxCell id="qp2swLeGEZeMXIS86JU7-27" style="edgeStyle=none;curved=1;rounded=0;orthogonalLoop=1;jettySize=auto;html=1;entryX=0.5;entryY=0;entryDx=0;entryDy=0;fontSize=12;startSize=8;endSize=8;" edge="1" parent="1" source="qp2swLeGEZeMXIS86JU7-20" target="qp2swLeGEZeMXIS86JU7-22">
          <mxGeometry relative="1" as="geometry" />
        </mxCell>
        <mxCell id="qp2swLeGEZeMXIS86JU7-20" value="과목" style="rounded=1;arcSize=10;whiteSpace=wrap;html=1;align=center;fontSize=16;" vertex="1" parent="1">
          <mxGeometry x="656" y="631" width="182" height="53" as="geometry" />
        </mxCell>
        <mxCell id="qp2swLeGEZeMXIS86JU7-21" value="과목번호" style="ellipse;whiteSpace=wrap;html=1;align=center;fontStyle=4;fontSize=16;" vertex="1" parent="1">
          <mxGeometry x="526" y="803" width="100" height="40" as="geometry" />
        </mxCell>
        <mxCell id="qp2swLeGEZeMXIS86JU7-22" value="과목명" style="ellipse;whiteSpace=wrap;html=1;align=center;fontSize=16;" vertex="1" parent="1">
          <mxGeometry x="649" y="803" width="100" height="40" as="geometry" />
        </mxCell>
        <mxCell id="qp2swLeGEZeMXIS86JU7-23" value="담당교수" style="ellipse;whiteSpace=wrap;html=1;align=center;fontSize=16;" vertex="1" parent="1">
          <mxGeometry x="767" y="803" width="100" height="40" as="geometry" />
        </mxCell>
        <mxCell id="qp2swLeGEZeMXIS86JU7-24" value="강의실" style="ellipse;whiteSpace=wrap;html=1;align=center;fontSize=16;" vertex="1" parent="1">
          <mxGeometry x="890" y="803" width="100" height="40" as="geometry" />
        </mxCell>
        <mxCell id="qp2swLeGEZeMXIS86JU7-26" style="edgeStyle=none;curved=1;rounded=0;orthogonalLoop=1;jettySize=auto;html=1;entryX=0.56;entryY=-0.054;entryDx=0;entryDy=0;entryPerimeter=0;fontSize=12;startSize=8;endSize=8;" edge="1" source="qp2swLeGEZeMXIS86JU7-20" target="qp2swLeGEZeMXIS86JU7-21" parent="1">
          <mxGeometry relative="1" as="geometry" />
        </mxCell>
        <mxCell id="qp2swLeGEZeMXIS86JU7-29" style="edgeStyle=orthogonalEdgeStyle;rounded=0;orthogonalLoop=1;jettySize=auto;html=1;entryX=0.5;entryY=0;entryDx=0;entryDy=0;fontSize=12;startSize=8;endSize=8;" edge="1" parent="1" source="qp2swLeGEZeMXIS86JU7-28" target="qp2swLeGEZeMXIS86JU7-1">
          <mxGeometry relative="1" as="geometry" />
        </mxCell>
        <mxCell id="qp2swLeGEZeMXIS86JU7-31" style="edgeStyle=orthogonalEdgeStyle;rounded=0;orthogonalLoop=1;jettySize=auto;html=1;entryX=0.5;entryY=0;entryDx=0;entryDy=0;fontSize=12;startSize=8;endSize=8;" edge="1" parent="1" source="qp2swLeGEZeMXIS86JU7-28" target="qp2swLeGEZeMXIS86JU7-20">
          <mxGeometry relative="1" as="geometry" />
        </mxCell>
        <mxCell id="qp2swLeGEZeMXIS86JU7-28" value="수강신청" style="shape=rhombus;perimeter=rhombusPerimeter;whiteSpace=wrap;html=1;align=center;fontSize=16;" vertex="1" parent="1">
          <mxGeometry x="323" y="502" width="120" height="60" as="geometry" />
        </mxCell>
      </root>
    </mxGraphModel>
  </diagram>
</mxfile>
